<?xml version="1.0" encoding="utf-8"?>
<!-- Generator: Adobe Illustrator 17.0.0, SVG Export Plug-In . SVG Version: 6.00 Build 0)  -->
<!DOCTYPE svg PUBLIC "-//W3C//DTD SVG 1.1//EN" "http://www.w3.org/Graphics/SVG/1.1/DTD/svg11.dtd">
<svg version="1.1" xmlns="http://www.w3.org/2000/svg" xmlns:xlink="http://www.w3.org/1999/xlink" x="0px" y="0px" width="100px"
	 height="100px" viewBox="0 0 100 100" enable-background="new 0 0 100 100" xml:space="preserve">
<g id="Layer_1">
</g>
<g id="Layer_2">
	<g>
		<path fill="#FFFFFF" d="M82.239,79.708L64.067,61.534c6.002-5.841,9.404-13.83,9.404-22.237c0-17.125-13.933-31.058-31.057-31.058
			c-17.125,0-31.058,13.933-31.058,31.058c0,17.125,13.933,31.058,31.058,31.058c4.604,0,9.179-1.037,13.324-3.009L75.17,86.776
			c0.944,0.944,2.2,1.465,3.535,1.465c1.334,0,2.589-0.52,3.533-1.463c0.945-0.943,1.467-2.199,1.467-3.536
			C83.705,81.906,83.184,80.65,82.239,79.708z M63.472,39.297c0,11.611-9.446,21.058-21.057,21.058
			c-11.611,0-21.058-9.446-21.058-21.058s9.447-21.058,21.058-21.058C54.025,18.239,63.472,27.686,63.472,39.297z"/>
	</g>
	<g>
		<path fill="#FFFFFF" d="M82.239,79.708L64.067,61.534c6.002-5.841,9.404-13.83,9.404-22.237c0-17.125-13.933-31.058-31.057-31.058
			c-17.125,0-31.058,13.933-31.058,31.058c0,17.125,13.933,31.058,31.058,31.058c4.604,0,9.179-1.037,13.324-3.009L75.17,86.776
			c0.944,0.944,2.2,1.465,3.535,1.465c1.334,0,2.589-0.52,3.533-1.463c0.945-0.943,1.467-2.199,1.467-3.536
			C83.705,81.906,83.184,80.65,82.239,79.708z M63.472,39.297c0,11.611-9.446,21.058-21.057,21.058
			c-11.611,0-21.058-9.446-21.058-21.058s9.447-21.058,21.058-21.058C54.025,18.239,63.472,27.686,63.472,39.297z"/>
	</g>
</g>
</svg>
