<?xml version="1.0"?>
<svg xmlns="http://www.w3.org/2000/svg" xmlns:xlink="http://www.w3.org/1999/xlink" version="1.1" id="Layer_1" x="0px" y="0px" viewBox="0 0 512 512" style="enable-background:new 0 0 512 512;" xml:space="preserve" width="512px" height="512px" class="hovered-paths"><g><path style="fill:#FF3366" d="M437.87,466.188H72.392c-32.727,0-59.256-26.53-59.256-59.256v-53.174h483.989v53.174  C497.126,439.658,470.595,466.188,437.87,466.188z" data-original="#94E7EF" class="hovered-path active-path" data-old_color="#94E7EF"/><g>
	<path style="fill:#FFFFFF" d="M498.966,339.95c-7.197,0-13.034,5.835-13.034,13.034v49.804c0,28.747-23.388,52.135-52.135,52.135   H78.203c-28.747,0-52.135-23.388-52.135-52.135v-49.804c0-7.199-5.835-13.034-13.034-13.034S0,345.785,0,352.984v49.804   c0,43.121,35.082,78.203,78.203,78.203h355.594c43.121,0,78.203-35.082,78.203-78.203v-49.804   C512,345.785,506.165,339.95,498.966,339.95z" data-original="#1E0478" class="" data-old_color="#1E0478"/>
	<path style="fill:#FFFFFF" d="M92.167,417.372h327.665c7.199,0,13.034-5.835,13.034-13.034c0-7.199-5.835-13.034-13.034-13.034   H92.167c-7.197,0-13.034,5.835-13.034,13.034C79.134,411.537,84.969,417.372,92.167,417.372z" data-original="#1E0478" class="" data-old_color="#1E0478"/>
	<path style="fill:#FFFFFF" d="M142.484,156.272l100.482-89.764v252.61c0,7.199,5.837,13.034,13.034,13.034   c7.199,0,13.034-5.835,13.034-13.034V66.508l100.482,89.764c2.486,2.221,5.588,3.314,8.678,3.314c3.583,0,7.15-1.469,9.726-4.351   c4.795-5.369,4.331-13.607-1.037-18.404L277.708,39.301c-12.376-11.055-31.04-11.057-43.417,0l-109.174,97.53   c-5.369,4.795-5.833,13.035-1.037,18.404C128.875,160.602,137.113,161.07,142.484,156.272z" data-original="#1E0478" class="" data-old_color="#1E0478"/>
</g></g> </svg>
